G04 EAGLE Gerber RS-274X export*
G75*
%MOMM*%
%FSLAX34Y34*%
%LPD*%
%INBottom Copper*%
%IPPOS*%
%AMOC8*
5,1,8,0,0,1.08239X$1,22.5*%
G01*
%ADD10C,1.524000*%
%ADD11C,0.152400*%
%ADD12C,0.756400*%
%ADD13C,0.400000*%


D10*
X17780Y215900D02*
X33020Y215900D01*
X33020Y190500D02*
X17780Y190500D01*
X266700Y33020D02*
X266700Y17780D01*
X292100Y17780D02*
X292100Y33020D01*
X317500Y33020D02*
X317500Y17780D01*
X342900Y17780D02*
X342900Y33020D01*
X368300Y33020D02*
X368300Y17780D01*
X393700Y17780D02*
X393700Y33020D01*
X411480Y152400D02*
X426720Y152400D01*
X426720Y177800D02*
X411480Y177800D01*
X411480Y203200D02*
X426720Y203200D01*
X426720Y228600D02*
X411480Y228600D01*
X411480Y254000D02*
X426720Y254000D01*
D11*
X361250Y57500D02*
X392500Y26250D01*
X361250Y57500D02*
X352500Y57500D01*
X392500Y26250D02*
X393700Y25400D01*
X382500Y151250D02*
X418750Y151250D01*
X419100Y152400D01*
X188750Y333750D02*
X148750Y293750D01*
X52500Y190000D02*
X63750Y178750D01*
X52500Y190000D02*
X26250Y190000D01*
X25400Y190500D01*
X133750Y308750D02*
X148750Y293750D01*
X133750Y308750D02*
X67500Y308750D01*
X125000Y171250D02*
X128750Y167500D01*
X125000Y171250D02*
X71250Y171250D01*
X63750Y178750D01*
X382500Y151250D02*
X382500Y116250D01*
X315000Y116250D01*
X298750Y100000D01*
D12*
X352500Y57500D03*
X382500Y151250D03*
X148750Y293750D03*
X188750Y333750D03*
X63750Y178750D03*
X67500Y308750D03*
X128750Y167500D03*
X298750Y100000D03*
D11*
X246250Y210000D02*
X186250Y210000D01*
X175000Y185000D02*
X123750Y133750D01*
D12*
X246250Y210000D03*
X186250Y210000D03*
X175000Y185000D03*
X123750Y133750D03*
D11*
X393750Y105000D02*
X416250Y105000D01*
D12*
X416250Y105000D03*
X393750Y105000D03*
D11*
X257500Y231250D02*
X235000Y253750D01*
X257500Y231250D02*
X318750Y231250D01*
X321250Y228750D01*
D12*
X235000Y253750D03*
X321250Y228750D03*
D11*
X251250Y253750D02*
X242500Y262500D01*
X275000Y253750D02*
X321250Y253750D01*
X275000Y253750D02*
X251250Y253750D01*
X275000Y253750D02*
X326250Y305000D01*
D12*
X242500Y262500D03*
X321250Y253750D03*
X326250Y305000D03*
D11*
X167500Y252500D02*
X140000Y280000D01*
D12*
X167500Y252500D03*
X140000Y280000D03*
D11*
X166250Y126250D02*
X266250Y26250D01*
X166250Y126250D02*
X105000Y126250D01*
X48750Y182500D01*
X266250Y26250D02*
X266700Y25400D01*
D12*
X48750Y182500D03*
D13*
X26250Y251250D02*
X76250Y301250D01*
X26250Y251250D02*
X26250Y216250D01*
X25400Y215900D01*
X52500Y215000D02*
X63750Y203750D01*
X52500Y215000D02*
X27500Y215000D01*
X25400Y215900D01*
X62500Y202500D02*
X86250Y178750D01*
X62500Y202500D02*
X63750Y203750D01*
X66250Y201250D02*
X392500Y201250D01*
X66250Y201250D02*
X63750Y203750D01*
D12*
X76250Y301250D03*
X63750Y203750D03*
X86250Y178750D03*
X392500Y201250D03*
D11*
X418750Y178750D02*
X315000Y178750D01*
X418750Y178750D02*
X419100Y177800D01*
X188750Y273750D02*
X181250Y266250D01*
X181250Y235000D01*
X192500Y235000D01*
X203750Y223750D01*
X266250Y223750D01*
X258750Y130000D02*
X246250Y117500D01*
X227500Y117500D01*
X216250Y128750D01*
X208750Y128750D01*
X312500Y176250D02*
X315000Y178750D01*
X312500Y176250D02*
X275000Y176250D01*
D12*
X315000Y178750D03*
X188750Y273750D03*
X203750Y223750D03*
X266250Y223750D03*
X258750Y130000D03*
X227500Y117500D03*
X208750Y128750D03*
X275000Y176250D03*
D11*
X258750Y176250D02*
X208750Y176250D01*
X345000Y267500D02*
X383750Y228750D01*
X418750Y228750D01*
X419100Y228600D01*
X262500Y206250D02*
X258750Y210000D01*
X262500Y206250D02*
X387500Y206250D01*
X390000Y208750D01*
X395000Y208750D01*
X400000Y203750D01*
X400000Y192500D01*
X431250Y192500D01*
X437500Y198750D01*
X437500Y227500D01*
X420000Y227500D01*
X419100Y228600D01*
D12*
X208750Y176250D03*
X258750Y176250D03*
X345000Y267500D03*
X258750Y210000D03*
D11*
X290000Y183750D02*
X226250Y183750D01*
X393750Y280000D02*
X418750Y255000D01*
X393750Y280000D02*
X311250Y280000D01*
X418750Y255000D02*
X419100Y254000D01*
D12*
X226250Y183750D03*
X290000Y183750D03*
X311250Y280000D03*
D11*
X193750Y223750D02*
X186250Y231250D01*
X117500Y231250D01*
X350000Y43750D02*
X367500Y26250D01*
X350000Y43750D02*
X332500Y43750D01*
X305000Y48750D02*
X305000Y92500D01*
X296250Y92500D01*
X288750Y100000D01*
X288750Y165000D01*
X203750Y165000D01*
X192500Y176250D01*
X367500Y26250D02*
X368300Y25400D01*
D12*
X193750Y223750D03*
X117500Y231250D03*
X332500Y43750D03*
X305000Y48750D03*
X192500Y176250D03*
D11*
X230000Y191250D02*
X231250Y192500D01*
X201250Y191250D02*
X197500Y191250D01*
X201250Y191250D02*
X230000Y191250D01*
X197500Y191250D02*
X175000Y168750D01*
X255000Y265000D02*
X326250Y336250D01*
X321250Y168750D02*
X362500Y127500D01*
X321250Y168750D02*
X206250Y168750D01*
X201250Y173750D01*
X201250Y191250D01*
D12*
X231250Y192500D03*
X175000Y168750D03*
X326250Y336250D03*
X255000Y265000D03*
X362500Y127500D03*
D11*
X311250Y311250D02*
X312500Y312500D01*
X383750Y312500D01*
X441250Y255000D01*
X441250Y112500D01*
X378750Y112500D01*
X292500Y26250D01*
X292100Y25400D01*
D12*
X311250Y311250D03*
D11*
X416250Y95000D02*
X386250Y65000D01*
X343750Y65000D01*
X317500Y38750D01*
X317500Y25400D01*
D12*
X416250Y95000D03*
D11*
X330000Y213750D02*
X306250Y213750D01*
D12*
X306250Y213750D03*
X330000Y213750D03*
D11*
X306250Y265000D02*
X310000Y268750D01*
X330000Y268750D01*
X367500Y231250D01*
D12*
X306250Y265000D03*
X367500Y231250D03*
D11*
X273750Y157500D02*
X248750Y132500D01*
X273750Y157500D02*
X281250Y157500D01*
X282500Y191250D02*
X283750Y192500D01*
X301250Y192500D01*
D12*
X248750Y132500D03*
X281250Y157500D03*
X282500Y191250D03*
X301250Y192500D03*
D11*
X181250Y66250D02*
X147500Y100000D01*
D12*
X147500Y100000D03*
X181250Y66250D03*
D11*
X191250Y216250D02*
X183750Y223750D01*
X191250Y216250D02*
X243750Y216250D01*
X245000Y217500D01*
X262500Y217500D01*
X263750Y216250D01*
X298750Y216250D01*
X303750Y221250D01*
X401250Y221250D01*
X418750Y203750D01*
X419100Y203200D01*
D12*
X183750Y223750D03*
M02*
