G04 EAGLE Gerber RS-274X export*
G75*
%MOMM*%
%FSLAX34Y34*%
%LPD*%
%IN*%
%IPPOS*%
%AMOC8*
5,1,8,0,0,1.08239X$1,22.5*%
G01*
%ADD10C,0.254000*%


D10*
X0Y0D02*
X453900Y0D01*
X453900Y444400D01*
X0Y444400D01*
X0Y0D01*
X41400Y24876D02*
X41332Y23831D01*
X41195Y22792D01*
X40990Y21765D01*
X40719Y20753D01*
X40383Y19761D01*
X39982Y18793D01*
X39518Y17854D01*
X38995Y16946D01*
X38413Y16075D01*
X37775Y15244D01*
X37084Y14457D01*
X36343Y13716D01*
X35556Y13025D01*
X34725Y12388D01*
X33854Y11806D01*
X32946Y11282D01*
X32007Y10818D01*
X31039Y10417D01*
X30047Y10081D01*
X29035Y9810D01*
X28008Y9605D01*
X26969Y9469D01*
X25924Y9400D01*
X24876Y9400D01*
X23831Y9469D01*
X22792Y9605D01*
X21765Y9810D01*
X20753Y10081D01*
X19761Y10417D01*
X18793Y10818D01*
X17854Y11282D01*
X16946Y11806D01*
X16075Y12388D01*
X15244Y13025D01*
X14457Y13716D01*
X13716Y14457D01*
X13025Y15244D01*
X12388Y16075D01*
X11806Y16946D01*
X11282Y17854D01*
X10818Y18793D01*
X10417Y19761D01*
X10081Y20753D01*
X9810Y21765D01*
X9605Y22792D01*
X9469Y23831D01*
X9400Y24876D01*
X9400Y25924D01*
X9469Y26969D01*
X9605Y28008D01*
X9810Y29035D01*
X10081Y30047D01*
X10417Y31039D01*
X10818Y32007D01*
X11282Y32946D01*
X11806Y33854D01*
X12388Y34725D01*
X13025Y35556D01*
X13716Y36343D01*
X14457Y37084D01*
X15244Y37775D01*
X16075Y38413D01*
X16946Y38995D01*
X17854Y39518D01*
X18793Y39982D01*
X19761Y40383D01*
X20753Y40719D01*
X21765Y40990D01*
X22792Y41195D01*
X23831Y41332D01*
X24876Y41400D01*
X25924Y41400D01*
X26969Y41332D01*
X28008Y41195D01*
X29035Y40990D01*
X30047Y40719D01*
X31039Y40383D01*
X32007Y39982D01*
X32946Y39518D01*
X33854Y38995D01*
X34725Y38413D01*
X35556Y37775D01*
X36343Y37084D01*
X37084Y36343D01*
X37775Y35556D01*
X38413Y34725D01*
X38995Y33854D01*
X39518Y32946D01*
X39982Y32007D01*
X40383Y31039D01*
X40719Y30047D01*
X40990Y29035D01*
X41195Y28008D01*
X41332Y26969D01*
X41400Y25924D01*
X41400Y24876D01*
X447800Y24876D02*
X447732Y23831D01*
X447595Y22792D01*
X447390Y21765D01*
X447119Y20753D01*
X446783Y19761D01*
X446382Y18793D01*
X445918Y17854D01*
X445395Y16946D01*
X444813Y16075D01*
X444175Y15244D01*
X443484Y14457D01*
X442743Y13716D01*
X441956Y13025D01*
X441125Y12388D01*
X440254Y11806D01*
X439346Y11282D01*
X438407Y10818D01*
X437439Y10417D01*
X436447Y10081D01*
X435435Y9810D01*
X434408Y9605D01*
X433369Y9469D01*
X432324Y9400D01*
X431276Y9400D01*
X430231Y9469D01*
X429192Y9605D01*
X428165Y9810D01*
X427153Y10081D01*
X426161Y10417D01*
X425193Y10818D01*
X424254Y11282D01*
X423346Y11806D01*
X422475Y12388D01*
X421644Y13025D01*
X420857Y13716D01*
X420116Y14457D01*
X419425Y15244D01*
X418788Y16075D01*
X418206Y16946D01*
X417682Y17854D01*
X417218Y18793D01*
X416817Y19761D01*
X416481Y20753D01*
X416210Y21765D01*
X416005Y22792D01*
X415869Y23831D01*
X415800Y24876D01*
X415800Y25924D01*
X415869Y26969D01*
X416005Y28008D01*
X416210Y29035D01*
X416481Y30047D01*
X416817Y31039D01*
X417218Y32007D01*
X417682Y32946D01*
X418206Y33854D01*
X418788Y34725D01*
X419425Y35556D01*
X420116Y36343D01*
X420857Y37084D01*
X421644Y37775D01*
X422475Y38413D01*
X423346Y38995D01*
X424254Y39518D01*
X425193Y39982D01*
X426161Y40383D01*
X427153Y40719D01*
X428165Y40990D01*
X429192Y41195D01*
X430231Y41332D01*
X431276Y41400D01*
X432324Y41400D01*
X433369Y41332D01*
X434408Y41195D01*
X435435Y40990D01*
X436447Y40719D01*
X437439Y40383D01*
X438407Y39982D01*
X439346Y39518D01*
X440254Y38995D01*
X441125Y38413D01*
X441956Y37775D01*
X442743Y37084D01*
X443484Y36343D01*
X444175Y35556D01*
X444813Y34725D01*
X445395Y33854D01*
X445918Y32946D01*
X446382Y32007D01*
X446783Y31039D01*
X447119Y30047D01*
X447390Y29035D01*
X447595Y28008D01*
X447732Y26969D01*
X447800Y25924D01*
X447800Y24876D01*
X447800Y418576D02*
X447732Y417531D01*
X447595Y416492D01*
X447390Y415465D01*
X447119Y414453D01*
X446783Y413461D01*
X446382Y412493D01*
X445918Y411554D01*
X445395Y410646D01*
X444813Y409775D01*
X444175Y408944D01*
X443484Y408157D01*
X442743Y407416D01*
X441956Y406725D01*
X441125Y406088D01*
X440254Y405506D01*
X439346Y404982D01*
X438407Y404518D01*
X437439Y404117D01*
X436447Y403781D01*
X435435Y403510D01*
X434408Y403305D01*
X433369Y403169D01*
X432324Y403100D01*
X431276Y403100D01*
X430231Y403169D01*
X429192Y403305D01*
X428165Y403510D01*
X427153Y403781D01*
X426161Y404117D01*
X425193Y404518D01*
X424254Y404982D01*
X423346Y405506D01*
X422475Y406088D01*
X421644Y406725D01*
X420857Y407416D01*
X420116Y408157D01*
X419425Y408944D01*
X418788Y409775D01*
X418206Y410646D01*
X417682Y411554D01*
X417218Y412493D01*
X416817Y413461D01*
X416481Y414453D01*
X416210Y415465D01*
X416005Y416492D01*
X415869Y417531D01*
X415800Y418576D01*
X415800Y419624D01*
X415869Y420669D01*
X416005Y421708D01*
X416210Y422735D01*
X416481Y423747D01*
X416817Y424739D01*
X417218Y425707D01*
X417682Y426646D01*
X418206Y427554D01*
X418788Y428425D01*
X419425Y429256D01*
X420116Y430043D01*
X420857Y430784D01*
X421644Y431475D01*
X422475Y432113D01*
X423346Y432695D01*
X424254Y433218D01*
X425193Y433682D01*
X426161Y434083D01*
X427153Y434419D01*
X428165Y434690D01*
X429192Y434895D01*
X430231Y435032D01*
X431276Y435100D01*
X432324Y435100D01*
X433369Y435032D01*
X434408Y434895D01*
X435435Y434690D01*
X436447Y434419D01*
X437439Y434083D01*
X438407Y433682D01*
X439346Y433218D01*
X440254Y432695D01*
X441125Y432113D01*
X441956Y431475D01*
X442743Y430784D01*
X443484Y430043D01*
X444175Y429256D01*
X444813Y428425D01*
X445395Y427554D01*
X445918Y426646D01*
X446382Y425707D01*
X446783Y424739D01*
X447119Y423747D01*
X447390Y422735D01*
X447595Y421708D01*
X447732Y420669D01*
X447800Y419624D01*
X447800Y418576D01*
X41400Y418576D02*
X41332Y417531D01*
X41195Y416492D01*
X40990Y415465D01*
X40719Y414453D01*
X40383Y413461D01*
X39982Y412493D01*
X39518Y411554D01*
X38995Y410646D01*
X38413Y409775D01*
X37775Y408944D01*
X37084Y408157D01*
X36343Y407416D01*
X35556Y406725D01*
X34725Y406088D01*
X33854Y405506D01*
X32946Y404982D01*
X32007Y404518D01*
X31039Y404117D01*
X30047Y403781D01*
X29035Y403510D01*
X28008Y403305D01*
X26969Y403169D01*
X25924Y403100D01*
X24876Y403100D01*
X23831Y403169D01*
X22792Y403305D01*
X21765Y403510D01*
X20753Y403781D01*
X19761Y404117D01*
X18793Y404518D01*
X17854Y404982D01*
X16946Y405506D01*
X16075Y406088D01*
X15244Y406725D01*
X14457Y407416D01*
X13716Y408157D01*
X13025Y408944D01*
X12388Y409775D01*
X11806Y410646D01*
X11282Y411554D01*
X10818Y412493D01*
X10417Y413461D01*
X10081Y414453D01*
X9810Y415465D01*
X9605Y416492D01*
X9469Y417531D01*
X9400Y418576D01*
X9400Y419624D01*
X9469Y420669D01*
X9605Y421708D01*
X9810Y422735D01*
X10081Y423747D01*
X10417Y424739D01*
X10818Y425707D01*
X11282Y426646D01*
X11806Y427554D01*
X12388Y428425D01*
X13025Y429256D01*
X13716Y430043D01*
X14457Y430784D01*
X15244Y431475D01*
X16075Y432113D01*
X16946Y432695D01*
X17854Y433218D01*
X18793Y433682D01*
X19761Y434083D01*
X20753Y434419D01*
X21765Y434690D01*
X22792Y434895D01*
X23831Y435032D01*
X24876Y435100D01*
X25924Y435100D01*
X26969Y435032D01*
X28008Y434895D01*
X29035Y434690D01*
X30047Y434419D01*
X31039Y434083D01*
X32007Y433682D01*
X32946Y433218D01*
X33854Y432695D01*
X34725Y432113D01*
X35556Y431475D01*
X36343Y430784D01*
X37084Y430043D01*
X37775Y429256D01*
X38413Y428425D01*
X38995Y427554D01*
X39518Y426646D01*
X39982Y425707D01*
X40383Y424739D01*
X40719Y423747D01*
X40990Y422735D01*
X41195Y421708D01*
X41332Y420669D01*
X41400Y419624D01*
X41400Y418576D01*
M02*
