G04 EAGLE Gerber RS-274X export*
G75*
%MOMM*%
%FSLAX34Y34*%
%LPD*%
%INSoldermask Bottom*%
%IPPOS*%
%AMOC8*
5,1,8,0,0,1.08239X$1,22.5*%
G01*
%ADD10C,3.403200*%
%ADD11C,1.727200*%
%ADD12C,0.959600*%


D10*
X25400Y25400D03*
X431800Y25400D03*
X431800Y419100D03*
X25400Y419100D03*
D11*
X17780Y215900D02*
X33020Y215900D01*
X33020Y190500D02*
X17780Y190500D01*
X266700Y33020D02*
X266700Y17780D01*
X292100Y17780D02*
X292100Y33020D01*
X317500Y33020D02*
X317500Y17780D01*
X342900Y17780D02*
X342900Y33020D01*
X368300Y33020D02*
X368300Y17780D01*
X393700Y17780D02*
X393700Y33020D01*
X411480Y152400D02*
X426720Y152400D01*
X426720Y177800D02*
X411480Y177800D01*
X411480Y203200D02*
X426720Y203200D01*
X426720Y228600D02*
X411480Y228600D01*
X411480Y254000D02*
X426720Y254000D01*
D12*
X352500Y57500D03*
X382500Y151250D03*
X148750Y293750D03*
X188750Y333750D03*
X63750Y178750D03*
X67500Y308750D03*
X128750Y167500D03*
X298750Y100000D03*
X246250Y210000D03*
X186250Y210000D03*
X175000Y185000D03*
X123750Y133750D03*
X416250Y105000D03*
X393750Y105000D03*
X235000Y253750D03*
X321250Y228750D03*
X242500Y262500D03*
X321250Y253750D03*
X326250Y305000D03*
X167500Y252500D03*
X140000Y280000D03*
X48750Y182500D03*
X76250Y301250D03*
X63750Y203750D03*
X86250Y178750D03*
X392500Y201250D03*
X315000Y178750D03*
X188750Y273750D03*
X203750Y223750D03*
X266250Y223750D03*
X258750Y130000D03*
X227500Y117500D03*
X208750Y128750D03*
X275000Y176250D03*
X208750Y176250D03*
X258750Y176250D03*
X345000Y267500D03*
X258750Y210000D03*
X226250Y183750D03*
X290000Y183750D03*
X311250Y280000D03*
X193750Y223750D03*
X117500Y231250D03*
X332500Y43750D03*
X305000Y48750D03*
X192500Y176250D03*
X231250Y192500D03*
X175000Y168750D03*
X326250Y336250D03*
X255000Y265000D03*
X362500Y127500D03*
X311250Y311250D03*
X416250Y95000D03*
X306250Y213750D03*
X330000Y213750D03*
X306250Y265000D03*
X367500Y231250D03*
X248750Y132500D03*
X281250Y157500D03*
X282500Y191250D03*
X301250Y192500D03*
X147500Y100000D03*
X181250Y66250D03*
X183750Y223750D03*
M02*
