G04 EAGLE Gerber RS-274X export*
G75*
%MOMM*%
%FSLAX34Y34*%
%LPD*%
%INSoldermask Top*%
%IPPOS*%
%AMOC8*
5,1,8,0,0,1.08239X$1,22.5*%
G01*
%ADD10C,3.403200*%
%ADD11R,1.703200X1.503200*%
%ADD12R,1.503200X1.703200*%
%ADD13R,0.803200X1.003200*%
%ADD14R,0.993200X0.463200*%
%ADD15R,0.463200X0.993200*%
%ADD16C,1.727200*%
%ADD17R,1.403200X1.403200*%
%ADD18R,1.473200X2.743200*%
%ADD19R,1.403200X0.803200*%
%ADD20R,0.803200X1.403200*%
%ADD21R,0.953200X1.453200*%
%ADD22R,1.203200X1.803200*%
%ADD23R,1.003200X0.603200*%
%ADD24R,0.603200X1.003200*%
%ADD25R,4.203200X4.203200*%
%ADD26R,1.203200X1.603200*%
%ADD27R,0.573200X0.443200*%
%ADD28R,0.603200X1.283200*%
%ADD29C,0.959600*%

G36*
X239854Y138604D02*
X239854Y138604D01*
X239856Y138601D01*
X240374Y138669D01*
X240381Y138676D01*
X240386Y138673D01*
X240869Y138872D01*
X240874Y138881D01*
X240880Y138879D01*
X241294Y139197D01*
X241297Y139206D01*
X241303Y139206D01*
X241621Y139620D01*
X241621Y139630D01*
X241628Y139631D01*
X241827Y140114D01*
X241825Y140123D01*
X241831Y140126D01*
X241899Y140644D01*
X241896Y140648D01*
X241899Y140650D01*
X241899Y164150D01*
X241896Y164154D01*
X241899Y164156D01*
X241831Y164674D01*
X241824Y164681D01*
X241827Y164686D01*
X241628Y165169D01*
X241619Y165174D01*
X241621Y165180D01*
X241303Y165594D01*
X241294Y165597D01*
X241294Y165603D01*
X240880Y165921D01*
X240871Y165921D01*
X240869Y165928D01*
X240386Y166127D01*
X240377Y166125D01*
X240374Y166131D01*
X239856Y166199D01*
X239852Y166196D01*
X239850Y166199D01*
X218350Y166199D01*
X218329Y166183D01*
X218315Y166185D01*
X215315Y163185D01*
X215312Y163158D01*
X215301Y163150D01*
X215301Y140650D01*
X215304Y140646D01*
X215301Y140644D01*
X215369Y140126D01*
X215376Y140119D01*
X215373Y140114D01*
X215572Y139631D01*
X215581Y139626D01*
X215579Y139620D01*
X215897Y139206D01*
X215906Y139203D01*
X215906Y139197D01*
X216320Y138879D01*
X216330Y138879D01*
X216331Y138872D01*
X216814Y138673D01*
X216823Y138675D01*
X216826Y138669D01*
X217344Y138601D01*
X217348Y138604D01*
X217350Y138601D01*
X239850Y138601D01*
X239854Y138604D01*
G37*
D10*
X25400Y25400D03*
X431800Y25400D03*
X431800Y419100D03*
X25400Y419100D03*
D11*
X63500Y117500D03*
X63500Y136500D03*
X114300Y187300D03*
X114300Y168300D03*
D12*
X85700Y165100D03*
X66700Y165100D03*
D11*
X241300Y111100D03*
X241300Y92100D03*
D12*
X92100Y38100D03*
X111100Y38100D03*
D11*
X393700Y117500D03*
X393700Y136500D03*
X101600Y250800D03*
X101600Y231800D03*
X381000Y263500D03*
X381000Y244500D03*
D12*
X295300Y114300D03*
X314300Y114300D03*
D11*
X266700Y92100D03*
X266700Y111100D03*
X266700Y142900D03*
X266700Y161900D03*
D12*
X295300Y139700D03*
X314300Y139700D03*
D13*
X88900Y190700D03*
X88900Y215700D03*
D14*
X208900Y164900D03*
X208900Y159900D03*
X208900Y154900D03*
X208900Y149900D03*
X208900Y144900D03*
X208900Y139900D03*
D15*
X216100Y132700D03*
X221100Y132700D03*
X226100Y132700D03*
X231100Y132700D03*
X236100Y132700D03*
X241100Y132700D03*
D14*
X248300Y139900D03*
X248300Y144900D03*
X248300Y149900D03*
X248300Y154900D03*
X248300Y159900D03*
X248300Y164900D03*
D15*
X241100Y172100D03*
X236100Y172100D03*
X231100Y172100D03*
X226100Y172100D03*
X221100Y172100D03*
X216100Y172100D03*
D16*
X33020Y215900D02*
X17780Y215900D01*
X17780Y190500D02*
X33020Y190500D01*
D17*
X368300Y192700D03*
X368300Y213700D03*
X342900Y192700D03*
X342900Y213700D03*
X292100Y86700D03*
X292100Y65700D03*
D18*
X25400Y114300D03*
X25400Y76200D03*
X431800Y76200D03*
X431800Y114300D03*
X431800Y292100D03*
X431800Y330200D03*
X25400Y292100D03*
X25400Y330200D03*
D19*
X114100Y66700D03*
X114100Y85700D03*
X89100Y76200D03*
X343100Y85700D03*
X343100Y66700D03*
X368100Y76200D03*
X126800Y295300D03*
X126800Y314300D03*
X101800Y304800D03*
X330400Y314300D03*
X330400Y295300D03*
X355400Y304800D03*
D20*
X73000Y215700D03*
X54000Y215700D03*
X63500Y190700D03*
D12*
X161900Y177800D03*
X142900Y177800D03*
X212700Y114300D03*
X193700Y114300D03*
X314300Y165100D03*
X295300Y165100D03*
X263500Y190500D03*
X244500Y190500D03*
D11*
X342900Y161900D03*
X342900Y142900D03*
X368300Y161900D03*
X368300Y142900D03*
D12*
X92100Y114300D03*
X111100Y114300D03*
D11*
X317500Y66700D03*
X317500Y85700D03*
D12*
X149200Y215900D03*
X130200Y215900D03*
X333400Y114300D03*
X352400Y114300D03*
X130200Y266700D03*
X149200Y266700D03*
X333400Y241300D03*
X352400Y241300D03*
X73000Y241300D03*
X54000Y241300D03*
D21*
X63500Y59700D03*
X63500Y92700D03*
X393700Y59700D03*
X393700Y92700D03*
X381000Y321300D03*
X381000Y288300D03*
X76200Y321300D03*
X76200Y288300D03*
D22*
X165500Y29100D03*
X190500Y53100D03*
X215500Y29100D03*
D12*
X92100Y139700D03*
X111100Y139700D03*
X193700Y88900D03*
X212700Y88900D03*
D16*
X266700Y33020D02*
X266700Y17780D01*
X292100Y17780D02*
X292100Y33020D01*
X317500Y33020D02*
X317500Y17780D01*
X342900Y17780D02*
X342900Y33020D01*
X368300Y33020D02*
X368300Y17780D01*
X393700Y17780D02*
X393700Y33020D01*
D23*
X177800Y342900D03*
X177800Y334900D03*
X177800Y326900D03*
X177800Y318900D03*
X177800Y310900D03*
X177800Y302900D03*
X177800Y294900D03*
X177800Y286900D03*
X177800Y278900D03*
X177800Y270900D03*
X177800Y262900D03*
X177800Y254900D03*
X177800Y246900D03*
D24*
X184800Y234400D03*
X192800Y234400D03*
X200800Y234400D03*
X208800Y234400D03*
X216800Y234400D03*
X224800Y234400D03*
X232800Y234400D03*
X240800Y234400D03*
X248800Y234400D03*
X256800Y234400D03*
X264800Y234400D03*
X272800Y234400D03*
X280800Y234400D03*
X288800Y234400D03*
D23*
X295800Y246900D03*
X295800Y254900D03*
X295800Y262900D03*
X295800Y270900D03*
X295800Y278900D03*
X295800Y286900D03*
X295800Y294900D03*
X295800Y302900D03*
X295800Y310900D03*
X295800Y318900D03*
X295800Y326900D03*
X295800Y334900D03*
X295800Y342900D03*
D24*
X288800Y355400D03*
X280800Y355400D03*
X272800Y355400D03*
X264800Y355400D03*
X256800Y355400D03*
X248800Y355400D03*
X240800Y355400D03*
X232800Y355400D03*
X224800Y355400D03*
X216800Y355400D03*
X208800Y355400D03*
X200800Y355400D03*
X192800Y355400D03*
X184800Y355400D03*
D25*
X236800Y294900D03*
D12*
X130200Y241300D03*
X149200Y241300D03*
X212700Y190500D03*
X193700Y190500D03*
X142900Y127000D03*
X161900Y127000D03*
D11*
X190500Y142900D03*
X190500Y161900D03*
D26*
X66600Y368300D03*
X136600Y368300D03*
D12*
X142900Y152400D03*
X161900Y152400D03*
D26*
X403300Y368300D03*
X333300Y368300D03*
D27*
X157550Y84900D03*
X157550Y88900D03*
X157550Y92900D03*
X147250Y92900D03*
X147250Y88900D03*
X147250Y84900D03*
D28*
X152400Y88900D03*
D16*
X411480Y152400D02*
X426720Y152400D01*
X426720Y177800D02*
X411480Y177800D01*
X411480Y203200D02*
X426720Y203200D01*
X426720Y228600D02*
X411480Y228600D01*
X411480Y254000D02*
X426720Y254000D01*
D29*
X352500Y57500D03*
X382500Y151250D03*
X148750Y293750D03*
X188750Y333750D03*
X63750Y178750D03*
X67500Y308750D03*
X128750Y167500D03*
X298750Y100000D03*
X246250Y210000D03*
X186250Y210000D03*
X175000Y185000D03*
X123750Y133750D03*
X416250Y105000D03*
X393750Y105000D03*
X235000Y253750D03*
X321250Y228750D03*
X242500Y262500D03*
X321250Y253750D03*
X326250Y305000D03*
X167500Y252500D03*
X140000Y280000D03*
X48750Y182500D03*
X76250Y301250D03*
X63750Y203750D03*
X86250Y178750D03*
X392500Y201250D03*
X315000Y178750D03*
X188750Y273750D03*
X203750Y223750D03*
X266250Y223750D03*
X258750Y130000D03*
X227500Y117500D03*
X208750Y128750D03*
X275000Y176250D03*
X208750Y176250D03*
X258750Y176250D03*
X345000Y267500D03*
X258750Y210000D03*
X226250Y183750D03*
X290000Y183750D03*
X311250Y280000D03*
X193750Y223750D03*
X117500Y231250D03*
X332500Y43750D03*
X305000Y48750D03*
X192500Y176250D03*
X231250Y192500D03*
X175000Y168750D03*
X326250Y336250D03*
X255000Y265000D03*
X362500Y127500D03*
X311250Y311250D03*
X416250Y95000D03*
X306250Y213750D03*
X330000Y213750D03*
X306250Y265000D03*
X367500Y231250D03*
X248750Y132500D03*
X281250Y157500D03*
X282500Y191250D03*
X301250Y192500D03*
X147500Y100000D03*
X181250Y66250D03*
X183750Y223750D03*
M02*
