M48
;GenerationSoftware,Autodesk,EAGLE,9.6.2*%
;CreationDate,2025-01-19T05:37:12Z*%
FMAT,2
ICI,OFF
METRIC,TZ,000.000
T3C0.350
T2C1.016
T1C3.200
%
G90
M71
T1
X2540Y2540
X43180Y2540
X43180Y41910
X2540Y41910
T2
X41910Y25400
X26670Y2540
X2540Y21590
X2540Y19050
X29210Y2540
X31750Y2540
X34290Y2540
X36830Y2540
X39370Y2540
X41910Y15240
X41910Y17780
X41910Y20320
X41910Y22860
T3
X32125Y25375
X32625Y30500
X16750Y25250
X14000Y28000
X4875Y18250
X7625Y30125
X6375Y20375
X8625Y17875
X39250Y20125
X31500Y17875
X18875Y27375
X20375Y22375
X26625Y22375
X25875Y13000
X22750Y11750
X20875Y12875
X27500Y17625
X20875Y17625
X25875Y17625
X34500Y26750
X25875Y21000
X22625Y18375
X29000Y18375
X17500Y18500
X19375Y22375
X11750Y23125
X33250Y4375
X30500Y4875
X19250Y17625
X23125Y19250
X17500Y16875
X32625Y33625
X25500Y26500
X36250Y12750
X31125Y31125
X41625Y9500
X30625Y21375
X33000Y21375
X30625Y26500
X36750Y23125
X24875Y13250
X28125Y15750
X28250Y19125
X35250Y5750
X14750Y10000
X18125Y6625
X18375Y22375
X38250Y15125
X14875Y29375
X18875Y33375
X6375Y17875
X6750Y30875
X12875Y16750
X31125Y28000
X29875Y10000
X24625Y21000
X18625Y21000
X12375Y13375
X41625Y10500
X39375Y10500
X23500Y25375
X32125Y22875
X24250Y26250
X30125Y19250
M30